<svg width="440" height="69" viewBox="0 0 440 69" fill="none" xmlns="http://www.w3.org/2000/svg">
<g clip-path="url(#clip0_140_129)">
<path d="M272.919 14.8408V28.9942H288.539V42.4692H272.919V68.3375H258.179V0.10083H297.339L287.265 14.8408H272.919Z" fill="#EB1923"/>
<path d="M294.745 68.3375V14.9783L290.831 14.74L301.079 0H309.485V68.3375H294.745Z" fill="#EB1923"/>
<path d="M338.608 68.3375L329.817 40.1225V68.3375H315.077V0H333.043C336.49 0 339.469 0.540834 341.981 1.61333C344.483 2.68583 346.555 4.19834 348.177 6.15084C349.8 8.10334 351.028 10.395 351.835 13.035C352.651 15.675 353.054 18.5533 353.054 21.6792C353.054 30.0117 350.258 35.805 344.657 39.0592L354.026 68.3467H338.598L338.608 68.3375ZM338.314 21.9633C338.314 19.6167 337.746 17.7375 336.609 16.2983C335.472 14.8683 333.667 14.1533 331.192 14.1533H329.826V30.1675H331.192C333.667 30.1675 335.472 29.3883 336.609 27.8208C337.746 26.2625 338.314 24.31 338.314 21.9633Z" fill="#EB1923"/>
<path d="M440 14.74H427.213V68.3375H412.473V14.74H399.685V0H440.009V14.74H440Z" fill="#EB1923"/>
<path d="M398.347 65.89C398.906 63.1583 399.181 60.0508 399.181 56.5675C399.181 53.3133 398.53 50.4625 397.237 48.0242C395.945 45.5858 394.313 43.4225 392.361 41.5342C390.399 39.6458 388.291 37.9317 386.036 36.3733C383.781 34.8242 381.672 33.2842 379.711 31.7717C377.749 30.2592 376.108 28.6642 374.77 27.005C373.441 25.3367 372.772 23.4392 372.772 21.2942C372.772 19.8183 373.102 18.5992 373.771 17.6367C374.44 16.6742 375.503 16.1975 376.988 16.1975C378.767 16.1975 379.949 16.9583 380.536 18.4708C381.122 19.9833 381.425 21.9267 381.425 24.2917H398.172C398.172 20.8175 397.824 17.6 397.118 14.6392C396.412 11.6783 395.23 9.13 393.571 6.985C391.902 4.84 389.721 3.15333 387.026 1.93416C384.331 0.714997 380.976 0.10083 376.988 0.10083C373.001 0.10083 369.774 0.696663 367.116 1.87916C364.448 3.06166 362.285 4.65666 360.626 6.64583C358.957 8.64417 357.775 10.9725 357.078 13.6308C356.372 16.2892 356.024 19.14 356.024 22.1742V22.2842C356.024 25.3917 356.666 28.1233 357.967 30.4975C359.26 32.8625 360.892 34.9892 362.853 36.8775C364.815 38.7658 366.942 40.4983 369.233 42.0933C371.525 43.6883 373.652 45.2192 375.613 46.695C377.575 48.1708 379.197 49.7108 380.499 51.2967C381.792 52.8917 382.442 54.6425 382.442 56.5675C382.442 58.9325 382.131 60.5458 381.498 61.3892C380.866 62.2417 379.848 62.6633 378.446 62.6633C376.301 62.6633 374.825 61.9025 374.009 60.39C373.193 58.8775 372.79 56.9342 372.79 54.5692H356.042C356.042 58.0433 356.391 61.2608 357.097 64.2217C357.445 65.6975 357.931 67.0633 358.517 68.3375H397.677C397.952 67.5583 398.191 66.7425 398.365 65.8808L398.347 65.89Z" fill="#EB1923"/>
<path d="M0 21.5325C0.55 21.56 1.27417 21.5875 2.16333 21.615C3.0525 21.6425 3.9325 21.6517 4.79417 21.6517C6.0225 21.6517 7.205 21.6425 8.3325 21.615C9.46 21.5875 10.2575 21.5783 10.7342 21.5783C13.4842 21.5783 15.5558 22.1558 16.9492 23.3108C18.3425 24.4658 19.0392 25.9417 19.0392 27.7567C19.0392 28.6733 18.8467 29.5717 18.4708 30.4517C18.0858 31.3317 17.4625 32.1292 16.5825 32.8533C15.7025 33.5775 14.5292 34.155 13.0625 34.6042V34.6867C15.1342 34.9525 16.7567 35.4383 17.9208 36.1625C19.085 36.8867 19.91 37.73 20.3775 38.7017C20.8542 39.6733 21.0833 40.6908 21.0833 41.7725C21.0833 43.2667 20.7075 44.5867 19.965 45.7233C19.2133 46.86 18.1317 47.7583 16.72 48.4183C15.3083 49.0783 13.6125 49.3992 11.6417 49.3992C11.0642 49.3992 10.2025 49.3808 9.0475 49.3442C7.8925 49.3075 6.50833 49.2892 4.87667 49.2892C3.96 49.2892 3.0525 49.2892 2.16333 49.3075C1.27417 49.3167 0.55 49.3533 0 49.4083V48.62C0.889167 48.565 1.5675 48.4642 2.02583 48.3083C2.48417 48.1525 2.79583 47.8408 2.95167 47.3642C3.1075 46.8875 3.19 46.1817 3.19 45.2375V25.7217C3.19 24.75 3.1075 24.035 2.95167 23.5767C2.79583 23.1183 2.48417 22.8067 2.02583 22.6325C1.5675 22.4583 0.889167 22.3667 0 22.3392V21.5508L0 21.5325ZM9.75333 22.3117C8.5525 22.3117 7.76417 22.5317 7.3975 22.9808C7.03083 23.43 6.8475 24.3283 6.8475 25.6942V45.21C6.8475 46.1267 6.93 46.8233 7.08583 47.2908C7.24167 47.7583 7.535 48.0792 7.9475 48.235C8.36917 48.3908 8.98333 48.4733 9.79917 48.4733C12.3658 48.4733 14.2358 47.8775 15.4092 46.6858C16.5733 45.4942 17.16 43.7983 17.16 41.5892C17.16 39.5725 16.6192 38.005 15.5283 36.905C14.4375 35.805 12.65 35.255 10.1567 35.255H6.105V34.5858H9.4875C11.0367 34.5858 12.2283 34.2925 13.0717 33.7058C13.915 33.1192 14.4833 32.3308 14.8042 31.35C15.1158 30.3692 15.2717 29.315 15.2717 28.1875C15.2717 26.2442 14.8408 24.7867 13.9975 23.7967C13.145 22.8158 11.7333 22.3208 9.77167 22.3208L9.75333 22.3117Z" fill="#232323"/>
<path d="M36.1992 21.3308L45.7967 46.0717C46.1908 47.0708 46.64 47.7308 47.135 48.0608C47.63 48.3908 48.0883 48.565 48.51 48.5925V49.3808C47.9875 49.3258 47.3458 49.2983 46.585 49.28C45.8242 49.2708 45.0633 49.2617 44.3025 49.2617C43.2758 49.2617 42.3225 49.2617 41.4333 49.28C40.5442 49.2892 39.82 49.3258 39.27 49.3808V48.5925C40.6083 48.5375 41.4608 48.3083 41.8275 47.905C42.1942 47.5017 42.1117 46.6308 41.5892 45.2925L34.2742 25.74L34.9067 25.2267L28.0592 43.01C27.6375 44.055 27.39 44.9442 27.3167 45.6683C27.2342 46.3925 27.3167 46.9608 27.5367 47.3825C27.7567 47.8042 28.1417 48.1067 28.6733 48.29C29.2142 48.4733 29.8833 48.5833 30.6992 48.6017V49.39C29.9658 49.335 29.1958 49.3075 28.3983 49.2892C27.6008 49.28 26.8583 49.2708 26.18 49.2708C25.5017 49.2708 24.97 49.2708 24.5117 49.2892C24.0533 49.2983 23.6317 49.335 23.2375 49.39V48.6017C23.76 48.4733 24.3008 48.1617 24.8508 47.6758C25.4008 47.19 25.905 46.3558 26.345 45.1733L35.5942 21.3308H36.2267H36.1992ZM40.9933 38.0508V38.8392H29.2692L29.6633 38.0508H40.9933Z" fill="#232323"/>
<path d="M76.1933 21.5325V22.3208C75.3041 22.3483 74.6258 22.4767 74.1675 22.715C73.7091 22.9533 73.3975 23.3292 73.2416 23.8517C73.0858 24.3742 73.0033 25.1258 73.0033 26.0975V49.5825H72.0958L55.5775 24.0533V44.825C55.5775 45.7692 55.66 46.5117 55.8341 47.0433C56.0083 47.5842 56.3475 47.96 56.8608 48.18C57.3741 48.4 58.135 48.5375 59.1616 48.5925V49.3808C58.6941 49.3258 58.0708 49.2983 57.31 49.28C56.5491 49.2708 55.825 49.2617 55.1466 49.2617C54.4683 49.2617 53.8266 49.2617 53.1575 49.28C52.4883 49.2892 51.9291 49.3258 51.4891 49.3808V48.5925C52.3783 48.5375 53.0566 48.4 53.515 48.18C53.9733 47.96 54.285 47.575 54.4408 47.0433C54.5966 46.5025 54.6791 45.7692 54.6791 44.825V25.7033C54.6791 24.7317 54.5966 24.0167 54.4408 23.5583C54.285 23.1 53.9733 22.7883 53.515 22.6142C53.0566 22.44 52.3783 22.3483 51.4891 22.3208V21.5325C51.9383 21.56 52.4883 21.5875 53.1575 21.615C53.8266 21.6425 54.4866 21.6517 55.1466 21.6517C55.7241 21.6517 56.2741 21.6425 56.7966 21.615C57.3191 21.5875 57.7958 21.56 58.2083 21.5325L72.0958 42.9367V26.0975C72.0958 25.1258 72.0133 24.3833 71.8391 23.8517C71.665 23.3292 71.3258 22.9442 70.8125 22.715C70.2991 22.4767 69.5383 22.3483 68.5116 22.3208V21.5325C68.9883 21.56 69.6025 21.5875 70.3816 21.615C71.1516 21.6425 71.8666 21.6517 72.5266 21.6517C73.1866 21.6517 73.8833 21.6425 74.5525 21.615C75.2216 21.5875 75.7625 21.56 76.1841 21.5325H76.1933Z" fill="#232323"/>
<path d="M88.8617 20.9825C90.5667 20.9825 91.9417 21.2392 92.9959 21.7525C94.0409 22.2658 95.0309 22.8617 95.9475 23.54C96.2867 23.8058 96.5525 23.9342 96.7359 23.9342C97.2309 23.9342 97.5609 23.1367 97.7167 21.5325H98.6242C98.5692 22.5042 98.5325 23.6867 98.505 25.0708C98.4775 26.4642 98.4684 28.2975 98.4684 30.58H97.5609C97.3775 29.48 97.1575 28.4167 96.8917 27.39C96.6259 26.3633 96.195 25.4925 95.59 24.7592C94.8292 23.7875 93.83 23.0358 92.6017 22.495C91.3642 21.9542 90.0992 21.6883 88.7884 21.6883C87.4775 21.6883 86.2859 22.0092 85.2317 22.6508C84.1684 23.2925 83.2609 24.2183 82.5 25.4283C81.7392 26.6383 81.1525 28.0867 80.7492 29.7733C80.3459 31.4692 80.1442 33.3758 80.1442 35.4933C80.1442 40.2142 80.905 43.67 82.4267 45.8608C83.9484 48.0517 86.3042 49.1425 89.5034 49.1425C90.4475 49.1425 91.2634 49.005 91.96 48.73C92.6567 48.455 93.1975 48.1892 93.5917 47.9233C94.0867 47.5842 94.4075 47.2633 94.5359 46.9608C94.6642 46.6583 94.7284 46.255 94.7284 45.76V41.9833C94.7284 40.9108 94.6275 40.1042 94.4167 39.5817C94.2059 39.0592 93.8209 38.7017 93.2525 38.5183C92.6842 38.335 91.8592 38.2342 90.75 38.2067V37.4183C91.2267 37.4458 91.7767 37.4642 92.4 37.4733C93.0325 37.4825 93.6925 37.5008 94.3892 37.51C95.0859 37.5192 95.7184 37.5283 96.2959 37.5283C97.1575 37.5283 97.9459 37.5192 98.6334 37.4917C99.33 37.4642 99.9075 37.4367 100.384 37.4092V38.1975C99.8067 38.225 99.3759 38.3167 99.0825 38.4725C98.7984 38.6283 98.6059 38.9492 98.5142 39.4167C98.4225 39.8842 98.3767 40.6083 98.3767 41.58V49.3717H97.5884C97.5609 48.9225 97.4692 48.4458 97.295 47.9142C97.1209 47.3917 96.8642 47.1258 96.525 47.1258C96.3692 47.1258 96.2134 47.1625 96.0575 47.245C95.9017 47.3183 95.6267 47.5108 95.2325 47.795C94.3709 48.4458 93.445 48.9683 92.4825 49.3442C91.5109 49.72 90.3834 49.9125 89.1 49.9125C86.3959 49.9125 84.0859 49.3533 82.1517 48.2442C80.2267 47.1258 78.7509 45.5217 77.7242 43.4225C76.6975 41.3233 76.1934 38.8208 76.1934 35.9058C76.1934 32.835 76.7434 30.1858 77.8434 27.9583C78.9434 25.7308 80.4467 24.0075 82.3442 22.7883C84.2417 21.5692 86.4142 20.9642 88.8525 20.9642L88.8617 20.9825Z" fill="#232323"/>
<path d="M111.962 21.5325V22.3208C111.073 22.3483 110.394 22.4492 109.936 22.6142C109.478 22.7883 109.166 23.1 109.01 23.5583C108.854 24.0167 108.772 24.7317 108.772 25.7033V45.2192C108.772 46.1633 108.854 46.8692 109.01 47.3458C109.166 47.8225 109.478 48.125 109.936 48.2717C110.394 48.4183 111.073 48.4917 111.962 48.4917H114.831C116.059 48.4917 117.068 48.3633 117.838 48.0975C118.608 47.8317 119.231 47.4192 119.689 46.86C120.148 46.2917 120.496 45.54 120.734 44.5958C120.973 43.6517 121.156 42.4967 121.284 41.1308H122.192C122.109 41.9467 122.073 43.0192 122.073 44.3575C122.073 44.8525 122.091 45.5675 122.128 46.5025C122.164 47.4375 122.238 48.4 122.348 49.39C121.009 49.335 119.506 49.3075 117.828 49.2892C116.151 49.28 114.657 49.2708 113.346 49.2708H111.128C110.22 49.2708 109.248 49.2708 108.194 49.2892C107.149 49.2983 106.086 49.3167 105.013 49.3258C103.941 49.335 102.914 49.3625 101.943 49.3808V48.5925C102.832 48.5375 103.51 48.4367 103.968 48.2808C104.427 48.125 104.738 47.8133 104.894 47.3367C105.05 46.86 105.133 46.1542 105.133 45.21V25.6942C105.133 24.7225 105.05 24.0075 104.894 23.5492C104.738 23.0908 104.427 22.7792 103.968 22.605C103.51 22.4308 102.832 22.3392 101.943 22.3117V21.5233C102.493 21.5508 103.217 21.5783 104.106 21.6058C104.995 21.6333 105.958 21.6425 106.975 21.6425C107.892 21.6425 108.808 21.6333 109.707 21.6058C110.614 21.5783 111.366 21.5508 111.971 21.5233L111.962 21.5325Z" fill="#232323"/>
<path d="M137.564 21.3308L147.162 46.0717C147.556 47.0708 148.005 47.7308 148.5 48.0608C148.995 48.3908 149.453 48.565 149.875 48.5925V49.3808C149.352 49.3258 148.711 49.2983 147.95 49.28C147.189 49.2708 146.428 49.2617 145.667 49.2617C144.641 49.2617 143.687 49.2617 142.798 49.28C141.909 49.2892 141.185 49.3258 140.635 49.3808V48.5925C141.973 48.5375 142.826 48.3083 143.192 47.905C143.559 47.5017 143.477 46.6308 142.954 45.2925L135.639 25.74L136.272 25.2267L129.424 43.01C129.002 44.055 128.755 44.9442 128.682 45.6683C128.599 46.3925 128.682 46.9608 128.902 47.3825C129.122 47.8042 129.507 48.1067 130.038 48.29C130.579 48.4733 131.248 48.5833 132.064 48.6017V49.39C131.331 49.335 130.561 49.3075 129.763 49.2892C128.966 49.28 128.223 49.2708 127.545 49.2708C126.867 49.2708 126.335 49.2708 125.877 49.2892C125.418 49.2983 124.997 49.335 124.602 49.39V48.6017C125.125 48.4733 125.666 48.1617 126.216 47.6758C126.766 47.19 127.27 46.3558 127.71 45.1733L136.959 21.3308H137.592H137.564ZM142.367 38.0508V38.8392H130.643L131.037 38.0508H142.367Z" fill="#232323"/>
<path d="M163.607 21.5325C168.3 21.5325 171.793 22.7058 174.066 25.0525C176.348 27.3992 177.485 30.7633 177.485 35.145C177.485 38.005 176.926 40.4983 175.817 42.6342C174.698 44.77 173.085 46.4292 170.958 47.6117C168.832 48.7942 166.265 49.3808 163.249 49.3808C162.855 49.3808 162.333 49.3717 161.673 49.3442C161.022 49.3167 160.343 49.2983 159.647 49.2892C158.95 49.28 158.318 49.2708 157.74 49.2708C156.823 49.2708 155.916 49.2708 155.027 49.2892C154.138 49.2983 153.413 49.335 152.863 49.39V48.6017C153.753 48.5467 154.431 48.4458 154.889 48.29C155.348 48.1342 155.659 47.8225 155.815 47.3458C155.971 46.8692 156.053 46.1633 156.053 45.2192V25.7033C156.053 24.7317 155.971 24.0167 155.815 23.5583C155.659 23.1 155.348 22.7883 154.889 22.6142C154.431 22.44 153.753 22.3483 152.863 22.3208V21.5325C153.413 21.56 154.138 21.5875 155.027 21.6333C155.916 21.67 156.796 21.6792 157.658 21.6517C158.574 21.6242 159.61 21.5967 160.765 21.5692C161.92 21.5417 162.864 21.5325 163.598 21.5325H163.607ZM162.626 22.2383C161.425 22.2383 160.637 22.4583 160.27 22.9075C159.903 23.3567 159.72 24.255 159.72 25.6208V45.2925C159.72 46.6583 159.913 47.5567 160.288 48.0058C160.664 48.455 161.462 48.675 162.672 48.675C165.532 48.675 167.75 48.1525 169.318 47.1167C170.894 46.0808 171.994 44.5683 172.627 42.57C173.259 40.5808 173.571 38.1517 173.571 35.2917C173.571 32.4317 173.223 29.92 172.526 27.995C171.829 26.07 170.693 24.6217 169.107 23.6683C167.521 22.715 165.367 22.2292 162.635 22.2292L162.626 22.2383Z" fill="#232323"/>
<path d="M199.128 21.5325C199.027 22.4492 198.953 23.3383 198.908 24.2092C198.871 25.0708 198.853 25.7308 198.853 26.18C198.853 26.6567 198.862 27.1058 198.889 27.5367C198.917 27.9675 198.944 28.3342 198.972 28.6183H198.064C197.908 27.0692 197.679 25.8408 197.395 24.9425C197.111 24.035 196.616 23.3933 195.919 23.0175C195.223 22.6417 194.178 22.4492 192.793 22.4492H189.53C188.641 22.4492 187.963 22.5225 187.504 22.6692C187.046 22.8158 186.734 23.1183 186.578 23.5767C186.423 24.035 186.34 24.75 186.34 25.7217V45.2375C186.34 46.1817 186.423 46.8875 186.578 47.3642C186.734 47.8408 187.046 48.1433 187.504 48.29C187.963 48.4367 188.641 48.51 189.53 48.51H192.399C194.049 48.51 195.305 48.29 196.158 47.8408C197.01 47.3917 197.624 46.6675 198.009 45.6592C198.385 44.6508 198.669 43.2758 198.853 41.5525H199.76C199.678 42.2583 199.641 43.2025 199.641 44.385C199.641 44.88 199.659 45.595 199.696 46.53C199.733 47.465 199.806 48.4275 199.916 49.4175C198.578 49.3625 197.074 49.335 195.397 49.3167C193.719 49.3075 192.225 49.2983 190.914 49.2983H188.696C187.788 49.2983 186.817 49.2983 185.763 49.3167C184.718 49.3258 183.654 49.3442 182.582 49.3533C181.509 49.3625 180.483 49.39 179.511 49.4083V48.62C180.4 48.565 181.078 48.4642 181.537 48.3083C181.995 48.1525 182.307 47.8408 182.463 47.3642C182.618 46.8875 182.701 46.1817 182.701 45.2375V25.7217C182.701 24.75 182.618 24.035 182.463 23.5767C182.307 23.1183 181.995 22.8067 181.537 22.6325C181.078 22.4583 180.4 22.3667 179.511 22.3392V21.5508C180.483 21.5783 181.5 21.5967 182.582 21.6058C183.654 21.615 184.718 21.6333 185.763 21.6425C186.817 21.6517 187.788 21.6608 188.696 21.6608H190.914C192.124 21.6608 193.49 21.6608 195.03 21.6425C196.561 21.6333 197.936 21.5967 199.137 21.5417L199.128 21.5325ZM192.363 34.98V35.7683H185.167V34.98H192.363ZM193.508 29.7917C193.408 31.2858 193.362 32.4225 193.371 33.2108C193.38 33.9992 193.389 34.7142 193.389 35.3742C193.389 36.0342 193.398 36.7492 193.426 37.5375C193.453 38.3258 193.518 39.4625 193.618 40.9567H192.711C192.61 40.1133 192.482 39.2975 192.335 38.5C192.188 37.7025 191.877 37.0425 191.391 36.5292C190.905 36.0158 190.089 35.7592 188.934 35.7592V34.9708C189.796 34.9708 190.465 34.7967 190.923 34.4392C191.382 34.0817 191.721 33.6325 191.923 33.0825C192.133 32.5325 192.28 31.9642 192.353 31.3683C192.427 30.7817 192.509 30.25 192.592 29.7733H193.499L193.508 29.7917Z" fill="#232323"/>
<path d="M211.878 21.0925C213.189 21.0925 214.188 21.2392 214.867 21.5417C215.545 21.8442 216.15 22.1742 216.672 22.5408C216.984 22.7242 217.241 22.8617 217.442 22.9533C217.635 23.045 217.827 23.0908 218.011 23.0908C218.277 23.0908 218.46 22.9442 218.579 22.66C218.698 22.3758 218.799 21.9358 218.872 21.3583H219.78C219.752 21.8075 219.725 22.3392 219.679 22.9533C219.642 23.5675 219.615 24.3833 219.606 25.3917C219.597 26.4 219.587 27.7292 219.587 29.3792H218.68C218.597 28.1233 218.322 26.9133 217.855 25.7583C217.387 24.6033 216.691 23.6592 215.792 22.9258C214.885 22.1925 213.702 21.8258 212.236 21.8258C210.842 21.8258 209.697 22.2475 208.798 23.0817C207.891 23.925 207.442 25.025 207.442 26.3908C207.442 27.5733 207.744 28.5633 208.349 29.3608C208.954 30.1583 209.761 30.8825 210.769 31.5242C211.777 32.1658 212.877 32.8533 214.051 33.5867C215.417 34.43 216.627 35.255 217.69 36.0892C218.753 36.9142 219.587 37.8217 220.211 38.8208C220.825 39.82 221.137 41.0208 221.137 42.4417C221.137 44.1192 220.752 45.5125 220 46.6125C219.239 47.7125 218.231 48.5375 216.966 49.0875C215.71 49.6375 214.317 49.9125 212.795 49.9125C211.402 49.9125 210.302 49.7567 209.495 49.445C208.679 49.1333 207.982 48.8033 207.405 48.4642C206.827 48.0975 206.378 47.9142 206.067 47.9142C205.801 47.9142 205.617 48.0608 205.498 48.345C205.379 48.6292 205.278 49.0692 205.205 49.6467H204.297C204.352 49.0967 204.38 48.4458 204.398 47.7033C204.407 46.9517 204.426 45.98 204.435 44.77C204.444 43.5692 204.453 42.0475 204.453 40.205H205.361C205.462 41.7817 205.764 43.2483 206.25 44.6142C206.736 45.98 207.478 47.0708 208.496 47.8958C209.504 48.7208 210.852 49.1333 212.529 49.1333C213.391 49.1333 214.216 48.9592 214.986 48.6017C215.756 48.2442 216.397 47.685 216.892 46.9058C217.387 46.1358 217.644 45.1275 217.644 43.8992C217.644 42.8267 217.387 41.8825 216.874 41.085C216.361 40.2875 215.646 39.5358 214.729 38.8392C213.812 38.1425 212.74 37.4275 211.502 36.6942C210.274 35.9333 209.119 35.1633 208.037 34.375C206.965 33.5867 206.103 32.6792 205.462 31.6433C204.82 30.6075 204.499 29.3517 204.499 27.885C204.499 26.3358 204.847 25.0617 205.544 24.0533C206.241 23.045 207.148 22.2933 208.276 21.8075C209.403 21.3217 210.613 21.0833 211.897 21.0833L211.878 21.0925Z" fill="#232323"/>
<path d="M223.795 49.3808V48.5925C224.684 48.5375 225.363 48.4367 225.821 48.2808C226.279 48.125 226.591 47.8133 226.747 47.3367C226.903 46.86 226.985 46.1542 226.985 45.21V25.6942C226.985 24.7225 226.903 24.0075 226.747 23.5492C226.591 23.0908 226.279 22.7792 225.821 22.605C225.363 22.4308 224.684 22.3392 223.795 22.3117V21.5233C224.345 21.5508 225.069 21.5783 225.958 21.6058C226.848 21.6333 227.81 21.6425 228.828 21.6425C229.744 21.6425 230.661 21.6333 231.559 21.6058C232.467 21.5783 233.218 21.5508 233.823 21.5233V22.3117C232.934 22.3392 232.256 22.44 231.798 22.605C231.339 22.7792 231.028 23.0908 230.872 23.5492C230.716 24.0075 230.633 24.7225 230.633 25.6942V45.21C230.633 46.1542 230.716 46.86 230.872 47.3367C231.028 47.8133 231.339 48.125 231.798 48.2808C232.256 48.4367 232.934 48.5467 233.823 48.5925V49.3808C233.218 49.3258 232.467 49.2983 231.559 49.28C230.652 49.2708 229.744 49.2617 228.828 49.2617C227.801 49.2617 226.848 49.2617 225.958 49.28C225.069 49.2892 224.345 49.3258 223.795 49.3808ZM229.258 35.7683V34.98H244.796V35.7683H229.258ZM240.24 49.3808V48.5925C241.129 48.5375 241.808 48.4367 242.266 48.2808C242.724 48.125 243.036 47.8133 243.192 47.3367C243.348 46.86 243.43 46.1542 243.43 45.21V25.6942C243.43 24.7225 243.348 24.0075 243.192 23.5492C243.036 23.0908 242.724 22.7792 242.266 22.605C241.808 22.4308 241.129 22.3392 240.24 22.3117V21.5233C240.845 21.5508 241.606 21.5783 242.523 21.6058C243.439 21.6333 244.347 21.6425 245.236 21.6425C246.263 21.6425 247.216 21.6333 248.105 21.6058C248.994 21.5783 249.718 21.5508 250.268 21.5233V22.3117C249.379 22.3392 248.701 22.44 248.243 22.605C247.784 22.7792 247.473 23.0908 247.317 23.5492C247.161 24.0075 247.078 24.7225 247.078 25.6942V45.21C247.078 46.1542 247.161 46.86 247.317 47.3367C247.473 47.8133 247.784 48.125 248.243 48.2808C248.701 48.4367 249.379 48.5467 250.268 48.5925V49.3808C249.718 49.3258 248.994 49.2983 248.105 49.28C247.216 49.2708 246.253 49.2617 245.236 49.2617C244.347 49.2617 243.439 49.2617 242.523 49.28C241.606 49.2892 240.845 49.3258 240.24 49.3808Z" fill="#232323"/>
</g>
<defs>
<clipPath id="clip0_140_129">
<rect width="440" height="68.3375" fill="white"/>
</clipPath>
</defs>
</svg>
