<svg width="420" height="66" viewBox="0 0 420 66" fill="none" xmlns="http://www.w3.org/2000/svg">
<path d="M260.508 14.1625V27.6722H275.418V40.5344H260.508V65.2264H246.439V0.0927734H283.818L274.202 14.1625H260.508Z" fill="#EB1923"/>
<path d="M281.342 65.2299V14.2972L277.605 14.0697L287.388 0H295.411V65.2299H281.342Z" fill="#EB1923"/>
<path d="M323.209 65.2299L314.818 38.2979V65.2299H300.749V0H317.898C321.188 0 324.032 0.516239 326.429 1.53997C328.818 2.5637 330.796 4.00741 332.344 5.87113C333.893 7.73484 335.065 9.92229 335.835 12.4422C336.614 14.9622 336.999 17.7096 336.999 20.6933C336.999 28.6469 334.33 34.1768 328.984 37.283L337.927 65.2386H323.201L323.209 65.2299ZM322.929 20.9646C322.929 18.7246 322.387 16.9309 321.302 15.5572C320.217 14.1922 318.493 13.5097 316.131 13.5097H314.827V28.7956H316.131C318.493 28.7956 320.217 28.0519 321.302 26.5557C322.387 25.0682 322.929 23.2045 322.929 20.9646Z" fill="#EB1923"/>
<path d="M419.991 14.0697H407.785V65.2299H393.716V14.0697H381.51V0H420V14.0697H419.991Z" fill="#EB1923"/>
<path d="M380.232 62.8902C380.766 60.2828 381.028 57.3166 381.028 53.9916C381.028 50.8855 380.407 48.1643 379.173 45.8368C377.939 43.5094 376.382 41.4444 374.518 39.6419C372.646 37.8395 370.633 36.2033 368.481 34.7158C366.328 33.2371 364.316 31.7671 362.444 30.3234C360.571 28.8797 359.005 27.3572 357.727 25.7735C356.459 24.181 355.82 22.3698 355.82 20.3223C355.82 18.9136 356.135 17.7499 356.774 16.8312C357.412 15.9124 358.427 15.4575 359.845 15.4575C361.542 15.4575 362.671 16.1837 363.231 17.6274C363.791 19.0711 364.08 20.9261 364.08 23.1835H380.066C380.066 19.8674 379.733 16.7962 379.059 13.97C378.386 11.1438 377.257 8.71134 375.673 6.66389C374.081 4.61643 371.998 3.00646 369.426 1.84274C366.853 0.679011 363.651 0.0927734 359.845 0.0927734C356.039 0.0927734 352.959 0.661511 350.421 1.79024C347.875 2.91896 345.81 4.44143 344.226 6.34014C342.634 8.2476 341.505 10.4701 340.84 13.0075C340.166 15.5449 339.834 18.2661 339.834 21.1623V21.2673C339.834 24.2335 340.446 26.841 341.689 29.1072C342.923 31.3646 344.48 33.3946 346.353 35.197C348.225 36.9995 350.255 38.6532 352.442 40.1757C354.63 41.6981 356.66 43.1594 358.532 44.5681C360.405 45.9768 361.954 47.4468 363.196 48.9605C364.43 50.483 365.051 52.1542 365.051 53.9916C365.051 56.2491 364.753 57.7891 364.15 58.594C363.546 59.4078 362.575 59.8103 361.236 59.8103C359.189 59.8103 357.78 59.084 357.001 57.6403C356.222 56.1966 355.837 54.3416 355.837 52.0842H339.851C339.851 55.4004 340.184 58.4715 340.858 61.2977C341.19 62.7065 341.654 64.0102 342.214 65.2264H379.593C379.856 64.4827 380.083 63.7039 380.249 62.8815L380.232 62.8902Z" fill="#EB1923"/>
<path d="M6.10352e-05 20.5518C0.52505 20.578 1.21629 20.6043 2.06502 20.6305C2.91375 20.6568 3.75373 20.6655 4.57622 20.6655C5.74869 20.6655 6.87742 20.6568 7.95364 20.6305C9.02987 20.6043 9.79111 20.5955 10.2461 20.5955C12.871 20.5955 14.8485 21.1467 16.1785 22.2492C17.5084 23.3517 18.1734 24.7604 18.1734 26.4929C18.1734 27.3679 17.9897 28.2253 17.6309 29.0653C17.2635 29.9053 16.6685 30.6665 15.8285 31.3578C14.9885 32.049 13.8685 32.6003 12.4686 33.029V33.1077C14.446 33.3615 15.9947 33.8252 17.106 34.5165C18.2172 35.2077 19.0047 36.0127 19.4509 36.9402C19.9059 37.8676 20.1246 38.8389 20.1246 39.8713C20.1246 41.2976 19.7659 42.5575 19.0572 43.6425C18.3397 44.7275 17.3072 45.585 15.9597 46.215C14.6123 46.845 12.9935 47.1512 11.1123 47.1512C10.5611 47.1512 9.73861 47.1337 8.63613 47.0987C7.53365 47.0637 6.21243 47.0462 4.65496 47.0462C3.77998 47.0462 2.91375 47.0462 2.06502 47.0637C1.21629 47.0724 0.52505 47.1074 6.10352e-05 47.1599V46.4075C0.848793 46.355 1.49628 46.2587 1.93377 46.11C2.37126 45.9612 2.66876 45.6637 2.8175 45.2087C2.96625 44.7537 3.045 44.08 3.045 43.1788V24.5504C3.045 23.6229 2.96625 22.9405 2.8175 22.503C2.66876 22.0655 2.37126 21.768 1.93377 21.6017C1.49628 21.4355 0.848793 21.348 6.10352e-05 21.3217V20.5693L6.10352e-05 20.5518ZM9.30987 21.2955C8.16364 21.2955 7.41116 21.5055 7.06116 21.9342C6.71117 22.363 6.53617 23.2205 6.53617 24.5242V43.1525C6.53617 44.0275 6.61492 44.6925 6.76367 45.1387C6.91242 45.585 7.19241 45.8912 7.58615 46.04C7.98864 46.1887 8.57488 46.2675 9.35361 46.2675C11.8036 46.2675 13.5885 45.6987 14.7085 44.5612C15.8197 43.4238 16.3797 41.8051 16.3797 39.6964C16.3797 37.7714 15.8635 36.2752 14.8223 35.2252C13.781 34.1752 12.0748 33.6502 9.69486 33.6502H5.82744V33.0115H9.05612C10.5348 33.0115 11.6723 32.7315 12.4773 32.1715C13.2823 31.6115 13.8248 30.859 14.131 29.9228C14.4285 28.9866 14.5773 27.9804 14.5773 26.9041C14.5773 25.0492 14.166 23.6579 13.361 22.713C12.5473 21.7767 11.1998 21.3042 9.32737 21.3042L9.30987 21.2955Z" fill="white"/>
<path d="M34.5531 20.3564L43.7142 43.9722C44.0904 44.9259 44.5191 45.5559 44.9916 45.8709C45.4641 46.1859 45.9016 46.3521 46.3041 46.3784V47.1309C45.8054 47.0784 45.1929 47.0521 44.4666 47.0346C43.7404 47.0259 43.0142 47.0171 42.2879 47.0171C41.308 47.0171 40.398 47.0171 39.5492 47.0346C38.7005 47.0434 38.0093 47.0784 37.4843 47.1309V46.3784C38.7618 46.3259 39.5755 46.1071 39.9255 45.7221C40.2755 45.3372 40.1967 44.5059 39.698 43.2285L32.7156 24.5651L33.3194 24.0751L26.7833 41.0497C26.3808 42.0472 26.1445 42.896 26.0745 43.5872C25.9958 44.2784 26.0745 44.8209 26.2845 45.2234C26.4945 45.6259 26.862 45.9146 27.3695 46.0896C27.8857 46.2646 28.5245 46.3696 29.3032 46.3871V47.1396C28.6032 47.0871 27.8682 47.0609 27.107 47.0434C26.3458 47.0346 25.637 47.0259 24.9895 47.0259C24.3421 47.0259 23.8346 47.0259 23.3971 47.0434C22.9596 47.0521 22.5571 47.0871 22.1808 47.1396V46.3871C22.6796 46.2646 23.1958 45.9671 23.7208 45.5034C24.2458 45.0397 24.727 44.2434 25.147 43.1147L33.9756 20.3564H34.5793H34.5531ZM39.1292 36.3161V37.0686H27.9382L28.3145 36.3161H39.1292Z" fill="white"/>
<path d="M72.7285 20.5518V21.3042C71.8798 21.3305 71.2323 21.453 70.7948 21.6805C70.3573 21.908 70.0598 22.2667 69.9111 22.7655C69.7623 23.2642 69.6836 23.9817 69.6836 24.9092V47.3262H68.8174L53.0502 22.958V42.785C53.0502 43.6863 53.1289 44.395 53.2952 44.9025C53.4614 45.4187 53.7852 45.7775 54.2752 45.9875C54.7652 46.1975 55.4914 46.3287 56.4714 46.3812V47.1337C56.0251 47.0812 55.4301 47.0549 54.7039 47.0374C53.9777 47.0287 53.2864 47.0199 52.6389 47.0199C51.9915 47.0199 51.379 47.0199 50.7402 47.0374C50.1015 47.0462 49.5678 47.0812 49.1478 47.1337V46.3812C49.9965 46.3287 50.644 46.1975 51.0815 45.9875C51.519 45.7775 51.8165 45.41 51.9652 44.9025C52.114 44.3862 52.1927 43.6863 52.1927 42.785V24.5329C52.1927 23.6054 52.114 22.923 51.9652 22.4855C51.8165 22.048 51.519 21.7505 51.0815 21.5842C50.644 21.418 49.9965 21.3305 49.1478 21.3042V20.5518C49.5765 20.578 50.1015 20.6043 50.7402 20.6305C51.379 20.6568 52.009 20.6655 52.6389 20.6655C53.1902 20.6655 53.7152 20.6568 54.2139 20.6305C54.7127 20.6043 55.1676 20.578 55.5614 20.5518L68.8174 40.9826V24.9092C68.8174 23.9817 68.7386 23.273 68.5724 22.7655C68.4061 22.2667 68.0824 21.8992 67.5924 21.6805C67.1024 21.453 66.3762 21.3305 65.3962 21.3042V20.5518C65.8512 20.578 66.4374 20.6043 67.1811 20.6305C67.9161 20.6568 68.5986 20.6655 69.2286 20.6655C69.8586 20.6655 70.5236 20.6568 71.1623 20.6305C71.8011 20.6043 72.3173 20.578 72.7198 20.5518H72.7285Z" fill="white"/>
<path d="M84.8208 20.0292C86.4482 20.0292 87.7607 20.2742 88.7669 20.7642C89.7644 21.2542 90.7094 21.8229 91.5844 22.4704C91.9081 22.7242 92.1619 22.8467 92.3369 22.8467C92.8093 22.8467 93.1243 22.0854 93.2731 20.5542H94.1393C94.0868 21.4817 94.0518 22.6104 94.0256 23.9316C93.9993 25.2616 93.9906 27.0116 93.9906 29.1903H93.1243C92.9493 28.1403 92.7393 27.1253 92.4856 26.1453C92.2319 25.1654 91.8206 24.3341 91.2431 23.6341C90.5169 22.7067 89.5632 21.9892 88.3907 21.4729C87.2095 20.9567 86.002 20.703 84.7508 20.703C83.4995 20.703 82.3621 21.0092 81.3558 21.6217C80.3409 22.2342 79.4746 23.1179 78.7484 24.2729C78.0222 25.4279 77.4622 26.8103 77.0772 28.4203C76.6922 30.039 76.4997 31.859 76.4997 33.8802C76.4997 38.3863 77.2259 41.685 78.6784 43.7762C80.1309 45.8674 82.3796 46.9086 85.4332 46.9086C86.3345 46.9086 87.1132 46.7774 87.7782 46.5149C88.4432 46.2524 88.9594 45.9987 89.3357 45.7449C89.8082 45.4212 90.1144 45.1149 90.2369 44.8262C90.3594 44.5374 90.4206 44.1525 90.4206 43.68V40.075C90.4206 39.0513 90.3244 38.2813 90.1231 37.7826C89.9219 37.2838 89.5544 36.9426 89.0119 36.7676C88.4694 36.5926 87.6819 36.4964 86.6232 36.4701V35.7176C87.0782 35.7439 87.6032 35.7614 88.1982 35.7701C88.8019 35.7789 89.4319 35.7964 90.0969 35.8051C90.7619 35.8139 91.3656 35.8226 91.9169 35.8226C92.7393 35.8226 93.4918 35.8139 94.1481 35.7876C94.813 35.7614 95.3643 35.7351 95.8193 35.7089V36.4614C95.268 36.4876 94.8568 36.5751 94.5768 36.7239C94.3056 36.8726 94.1218 37.1789 94.0343 37.6251C93.9468 38.0713 93.9031 38.7626 93.9031 39.69V47.1274H93.1506C93.1243 46.6987 93.0368 46.2437 92.8706 45.7362C92.7043 45.2374 92.4594 44.9837 92.1356 44.9837C91.9869 44.9837 91.8381 45.0187 91.6894 45.0974C91.5406 45.1674 91.2781 45.3512 90.9019 45.6224C90.0794 46.2437 89.1957 46.7424 88.2769 47.1011C87.3495 47.4599 86.2732 47.6436 85.0483 47.6436C82.4671 47.6436 80.2621 47.1099 78.4159 46.0512C76.5784 44.9837 75.1697 43.4525 74.1897 41.4488C73.2098 39.4451 72.7285 37.0564 72.7285 34.2739C72.7285 31.3427 73.2535 28.814 74.3035 26.6878C75.3535 24.5616 76.7884 22.9167 78.5996 21.7529C80.4109 20.5892 82.4846 20.0117 84.812 20.0117L84.8208 20.0292Z" fill="white"/>
<path d="M106.87 20.5537V21.3062C106.022 21.3324 105.374 21.4287 104.937 21.5862C104.499 21.7524 104.202 22.0499 104.053 22.4874C103.904 22.9249 103.825 23.6074 103.825 24.5348V43.1632C103.825 44.0644 103.904 44.7382 104.053 45.1932C104.202 45.6481 104.499 45.9369 104.937 46.0769C105.374 46.2169 106.022 46.2869 106.87 46.2869H109.609C110.782 46.2869 111.744 46.1644 112.479 45.9106C113.214 45.6569 113.809 45.2632 114.246 44.7294C114.684 44.1869 115.016 43.4694 115.244 42.5682C115.471 41.667 115.646 40.5645 115.769 39.2608H116.635C116.556 40.0395 116.521 41.0632 116.521 42.3407C116.521 42.8132 116.539 43.4957 116.574 44.3882C116.609 45.2807 116.679 46.1994 116.784 47.1444C115.506 47.0919 114.071 47.0656 112.47 47.0481C110.869 47.0394 109.443 47.0306 108.192 47.0306H106.074C105.208 47.0306 104.28 47.0306 103.274 47.0481C102.277 47.0569 101.262 47.0744 100.238 47.0831C99.2143 47.0919 98.2343 47.1181 97.3068 47.1356V46.3831C98.1556 46.3306 98.803 46.2344 99.2405 46.0856C99.678 45.9369 99.9755 45.6394 100.124 45.1844C100.273 44.7294 100.352 44.0557 100.352 43.1544V24.5261C100.352 23.5986 100.273 22.9161 100.124 22.4786C99.9755 22.0411 99.678 21.7436 99.2405 21.5774C98.803 21.4112 98.1556 21.3237 97.3068 21.2974V20.5449C97.8318 20.5712 98.523 20.5974 99.3718 20.6237C100.221 20.6499 101.139 20.6587 102.11 20.6587C102.985 20.6587 103.86 20.6499 104.718 20.6237C105.584 20.5974 106.302 20.5712 106.879 20.5449L106.87 20.5537Z" fill="white"/>
<path d="M131.309 20.3564L140.47 43.9722C140.846 44.9259 141.275 45.5559 141.747 45.8709C142.22 46.1859 142.657 46.3521 143.06 46.3784V47.1309C142.561 47.0784 141.948 47.0521 141.222 47.0346C140.496 47.0259 139.77 47.0171 139.043 47.0171C138.063 47.0171 137.153 47.0171 136.305 47.0346C135.456 47.0434 134.765 47.0784 134.24 47.1309V46.3784C135.517 46.3259 136.331 46.1071 136.681 45.7221C137.031 45.3372 136.952 44.5059 136.453 43.2285L129.471 24.5651L130.075 24.0751L123.539 41.0497C123.136 42.0472 122.9 42.896 122.83 43.5872C122.751 44.2784 122.83 44.8209 123.04 45.2234C123.25 45.6259 123.618 45.9146 124.125 46.0896C124.641 46.2646 125.28 46.3696 126.059 46.3871V47.1396C125.359 47.0871 124.624 47.0609 123.862 47.0434C123.101 47.0346 122.393 47.0259 121.745 47.0259C121.098 47.0259 120.59 47.0259 120.153 47.0434C119.715 47.0521 119.313 47.0871 118.936 47.1396V46.3871C119.435 46.2646 119.951 45.9671 120.476 45.5034C121.001 45.0397 121.483 44.2434 121.903 43.1147L130.731 20.3564H131.335H131.309ZM135.893 36.3161V37.0686H124.702L125.079 36.3161H135.893Z" fill="white"/>
<path d="M156.167 20.5518C160.647 20.5518 163.98 21.6717 166.15 23.9117C168.329 26.1516 169.414 29.3628 169.414 33.5452C169.414 36.2752 168.88 38.6551 167.822 40.6938C166.754 42.7325 165.214 44.3163 163.184 45.445C161.154 46.5737 158.704 47.1337 155.826 47.1337C155.449 47.1337 154.951 47.125 154.321 47.0987C153.699 47.0725 153.052 47.055 152.387 47.0462C151.722 47.0375 151.118 47.0287 150.567 47.0287C149.692 47.0287 148.826 47.0287 147.977 47.0462C147.128 47.055 146.437 47.09 145.912 47.1425V46.39C146.761 46.3375 147.408 46.2412 147.846 46.0925C148.283 45.9437 148.581 45.6462 148.729 45.1912C148.878 44.7363 148.957 44.0625 148.957 43.1613V24.5329C148.957 23.6054 148.878 22.923 148.729 22.4855C148.581 22.048 148.283 21.7505 147.846 21.5842C147.408 21.418 146.761 21.3305 145.912 21.3042V20.5518C146.437 20.578 147.128 20.6043 147.977 20.648C148.826 20.683 149.666 20.6918 150.488 20.6655C151.363 20.6393 152.352 20.613 153.454 20.5868C154.557 20.5605 155.458 20.5518 156.158 20.5518H156.167ZM155.231 21.2255C154.084 21.2255 153.332 21.4355 152.982 21.8642C152.632 22.293 152.457 23.1505 152.457 24.4542V43.2313C152.457 44.535 152.641 45.3925 152.999 45.8212C153.358 46.25 154.119 46.46 155.274 46.46C158.004 46.46 160.122 45.9612 161.618 44.9725C163.123 43.9838 164.173 42.5401 164.777 40.6326C165.38 38.7339 165.678 36.4152 165.678 33.6852C165.678 30.9553 165.345 28.5578 164.68 26.7204C164.015 24.8829 162.93 23.5004 161.417 22.5905C159.903 21.6805 157.847 21.2167 155.239 21.2167L155.231 21.2255Z" fill="white"/>
<path d="M190.072 20.5518C189.976 21.4267 189.906 22.2755 189.862 23.1067C189.827 23.9292 189.81 24.5592 189.81 24.9879C189.81 25.4429 189.819 25.8716 189.845 26.2829C189.871 26.6941 189.897 27.0441 189.924 27.3154H189.057C188.909 25.8366 188.69 24.6642 188.419 23.8067C188.147 22.9405 187.675 22.328 187.01 21.9692C186.345 21.6105 185.348 21.4267 184.026 21.4267H180.911C180.063 21.4267 179.415 21.4967 178.978 21.6367C178.54 21.7767 178.243 22.0655 178.094 22.503C177.945 22.9405 177.866 23.6229 177.866 24.5504V43.1788C177.866 44.08 177.945 44.7537 178.094 45.2087C178.243 45.6637 178.54 45.9525 178.978 46.0925C179.415 46.2325 180.063 46.3025 180.911 46.3025H183.65C185.225 46.3025 186.424 46.0925 187.238 45.6637C188.051 45.235 188.637 44.5437 189.005 43.5813C189.364 42.6188 189.635 41.3063 189.81 39.6614H190.676C190.597 40.3351 190.562 41.2363 190.562 42.365C190.562 42.8375 190.58 43.52 190.615 44.4125C190.65 45.305 190.72 46.2237 190.825 47.1687C189.547 47.1162 188.112 47.0899 186.511 47.0724C184.91 47.0637 183.484 47.0549 182.233 47.0549H180.115C179.249 47.0549 178.321 47.0549 177.315 47.0724C176.318 47.0812 175.303 47.0987 174.279 47.1074C173.255 47.1162 172.275 47.1424 171.348 47.1599V46.4075C172.197 46.355 172.844 46.2587 173.282 46.11C173.719 45.9612 174.017 45.6637 174.165 45.2087C174.314 44.7537 174.393 44.08 174.393 43.1788V24.5504C174.393 23.6229 174.314 22.9405 174.165 22.503C174.017 22.0655 173.719 21.768 173.282 21.6017C172.844 21.4355 172.197 21.348 171.348 21.3217V20.5693C172.275 20.5955 173.247 20.613 174.279 20.6218C175.303 20.6305 176.318 20.648 177.315 20.6568C178.321 20.6655 179.249 20.6743 180.115 20.6743H182.233C183.388 20.6743 184.691 20.6743 186.161 20.6568C187.622 20.648 188.935 20.613 190.081 20.5605L190.072 20.5518ZM183.615 33.3877V34.1402H176.746V33.3877H183.615ZM184.709 28.4353C184.613 29.8616 184.569 30.9465 184.578 31.699C184.586 32.4515 184.595 33.134 184.595 33.764C184.595 34.394 184.604 35.0764 184.63 35.8289C184.656 36.5814 184.718 37.6664 184.814 39.0926H183.948C183.851 38.2876 183.729 37.5089 183.589 36.7477C183.449 35.9864 183.151 35.3564 182.688 34.8665C182.224 34.3765 181.445 34.1315 180.343 34.1315V33.379C181.165 33.379 181.804 33.2127 182.241 32.8715C182.679 32.5303 183.003 32.1015 183.195 31.5765C183.396 31.0515 183.536 30.509 183.606 29.9403C183.676 29.3803 183.755 28.8728 183.834 28.4178H184.7L184.709 28.4353Z" fill="white"/>
<path d="M202.243 20.1367C203.494 20.1367 204.448 20.2767 205.096 20.5654C205.743 20.8542 206.321 21.1692 206.819 21.5192C207.117 21.6941 207.362 21.8254 207.554 21.9129C207.738 22.0004 207.922 22.0441 208.097 22.0441C208.351 22.0441 208.526 21.9041 208.639 21.6329C208.753 21.3617 208.849 20.9417 208.919 20.3904H209.786C209.759 20.8192 209.733 21.3267 209.689 21.9129C209.654 22.4991 209.628 23.2779 209.619 24.2403C209.611 25.2028 209.602 26.4715 209.602 28.0465H208.736C208.657 26.8478 208.394 25.6928 207.948 24.5903C207.502 23.4879 206.837 22.5866 205.979 21.8866C205.113 21.1867 203.984 20.8367 202.584 20.8367C201.255 20.8367 200.161 21.2392 199.303 22.0354C198.437 22.8404 198.008 23.8904 198.008 25.1941C198.008 26.3228 198.297 27.2678 198.875 28.029C199.452 28.7902 200.222 29.4815 201.185 30.094C202.147 30.7065 203.197 31.3627 204.317 32.0627C205.621 32.8677 206.776 33.6551 207.791 34.4514C208.806 35.2389 209.602 36.1051 210.197 37.0588C210.783 38.0125 211.081 39.1588 211.081 40.515C211.081 42.1162 210.713 43.4462 209.996 44.4962C209.269 45.5461 208.307 46.3336 207.099 46.8586C205.901 47.3836 204.571 47.6461 203.118 47.6461C201.788 47.6461 200.738 47.4973 199.968 47.1999C199.19 46.9024 198.525 46.5874 197.973 46.2636C197.422 45.9136 196.993 45.7386 196.696 45.7386C196.442 45.7386 196.267 45.8786 196.153 46.1499C196.04 46.4211 195.943 46.8411 195.873 47.3923H195.007C195.06 46.8674 195.086 46.2461 195.103 45.5374C195.112 44.8199 195.13 43.8924 195.138 42.7374C195.147 41.5912 195.156 40.1388 195.156 38.38H196.022C196.118 39.885 196.407 41.285 196.871 42.5887C197.335 43.8924 198.043 44.9336 199.015 45.7211C199.977 46.5086 201.263 46.9024 202.864 46.9024C203.687 46.9024 204.474 46.7361 205.209 46.3949C205.944 46.0536 206.557 45.5199 207.029 44.7762C207.502 44.0412 207.747 43.0787 207.747 41.9062C207.747 40.8825 207.502 39.9813 207.012 39.22C206.522 38.4588 205.839 37.7413 204.964 37.0763C204.089 36.4113 203.066 35.7288 201.884 35.0289C200.712 34.3026 199.61 33.5676 198.577 32.8152C197.553 32.0627 196.731 31.1964 196.118 30.2077C195.506 29.219 195.2 28.0203 195.2 26.6203C195.2 25.1416 195.532 23.9253 196.197 22.9629C196.862 22.0004 197.728 21.2829 198.805 20.8192C199.881 20.3554 201.036 20.1279 202.261 20.1279L202.243 20.1367Z" fill="white"/>
<path d="M213.618 47.1356V46.3831C214.467 46.3306 215.114 46.2344 215.552 46.0856C215.989 45.9369 216.287 45.6394 216.435 45.1844C216.584 44.7294 216.663 44.0557 216.663 43.1544V24.5261C216.663 23.5986 216.584 22.9161 216.435 22.4786C216.287 22.0411 215.989 21.7436 215.552 21.5774C215.114 21.4112 214.467 21.3237 213.618 21.2974V20.5449C214.143 20.5712 214.834 20.5974 215.683 20.6237C216.532 20.6499 217.45 20.6587 218.422 20.6587C219.297 20.6587 220.172 20.6499 221.029 20.6237C221.895 20.5974 222.613 20.5712 223.19 20.5449V21.2974C222.342 21.3237 221.694 21.4199 221.257 21.5774C220.819 21.7436 220.522 22.0411 220.373 22.4786C220.224 22.9161 220.145 23.5986 220.145 24.5261V43.1544C220.145 44.0557 220.224 44.7294 220.373 45.1844C220.522 45.6394 220.819 45.9369 221.257 46.0856C221.694 46.2344 222.342 46.3394 223.19 46.3831V47.1356C222.613 47.0831 221.895 47.0568 221.029 47.0393C220.163 47.0306 219.297 47.0219 218.422 47.0219C217.442 47.0219 216.532 47.0218 215.683 47.0393C214.834 47.0481 214.143 47.0831 213.618 47.1356ZM218.833 34.1421V33.3896H233.664V34.1421H218.833ZM229.315 47.1356V46.3831C230.164 46.3306 230.811 46.2344 231.249 46.0856C231.686 45.9369 231.984 45.6394 232.133 45.1844C232.281 44.7294 232.36 44.0557 232.36 43.1544V24.5261C232.36 23.5986 232.281 22.9161 232.133 22.4786C231.984 22.0411 231.686 21.7436 231.249 21.5774C230.811 21.4112 230.164 21.3237 229.315 21.2974V20.5449C229.893 20.5712 230.619 20.5974 231.494 20.6237C232.369 20.6499 233.235 20.6587 234.084 20.6587C235.064 20.6587 235.974 20.6499 236.823 20.6237C237.671 20.5974 238.363 20.5712 238.888 20.5449V21.2974C238.039 21.3237 237.391 21.4199 236.954 21.5774C236.516 21.7436 236.219 22.0411 236.07 22.4786C235.921 22.9161 235.843 23.5986 235.843 24.5261V43.1544C235.843 44.0557 235.921 44.7294 236.07 45.1844C236.219 45.6394 236.516 45.9369 236.954 46.0856C237.391 46.2344 238.039 46.3394 238.888 46.3831V47.1356C238.363 47.0831 237.671 47.0568 236.823 47.0393C235.974 47.0306 235.055 47.0219 234.084 47.0219C233.235 47.0219 232.369 47.0218 231.494 47.0393C230.619 47.0481 229.893 47.0831 229.315 47.1356Z" fill="white"/>
</svg>
